HIERARCHY
ROOT Hips
{
 OFFSET 0.000000 0.000000 0.000000
 CHANNELS 6 Xposition Yposition Zposition Yrotation Xrotation Zrotation
 JOINT Chest
 {
  OFFSET 0.000000 10.385163 0.011643
  CHANNELS 3 Yrotation Xrotation Zrotation
  JOINT Chest2
  {
   OFFSET 0.000000 11.579334 -0.021150
   CHANNELS 3 Yrotation Xrotation Zrotation
   JOINT Chest3
   {
    OFFSET 0.000000 10.463212 0.000000
    CHANNELS 3 Yrotation Xrotation Zrotation
    JOINT Chest4
    {
     OFFSET 0.000000 10.463212 0.000000
     CHANNELS 3 Yrotation Xrotation Zrotation
     JOINT Neck
     {
      OFFSET 0.000000 14.544862 0.000000
      CHANNELS 3 Yrotation Xrotation Zrotation
      JOINT Head
      {
       OFFSET 0.000000 9.730630 -0.050295
       CHANNELS 3 Yrotation Xrotation Zrotation
       End Site
       {
        OFFSET 0.000000 18.757589 -0.026270
       }
      }
     }
     JOINT RightCollar
     {
      OFFSET -2.985174 8.102313 0.000000
      CHANNELS 3 Yrotation Xrotation Zrotation
      JOINT RightShoulder
      {
       OFFSET -13.558590 0.000000 0.000000
       CHANNELS 3 Yrotation Xrotation Zrotation
       JOINT RightElbow
       {
        OFFSET -28.208579 0.000000 0.000000
        CHANNELS 3 Yrotation Xrotation Zrotation
        JOINT RightWrist
        {
         OFFSET -23.322907 0.000000 0.010349
         CHANNELS 3 Yrotation Xrotation Zrotation
         End Site
         {
          OFFSET -17.603338 0.000000 0.000000
         }
        }
       }
      }
     }
     JOINT LeftCollar
     {
      OFFSET 2.985174 8.102313 0.000000
      CHANNELS 3 Yrotation Xrotation Zrotation
      JOINT LeftShoulder
      {
       OFFSET 13.558590 0.000000 0.000000
       CHANNELS 3 Yrotation Xrotation Zrotation
       JOINT LeftElbow
       {
        OFFSET 28.208579 0.000000 0.000000
        CHANNELS 3 Yrotation Xrotation Zrotation
        JOINT LeftWrist
        {
         OFFSET 23.322907 0.000000 0.010349
         CHANNELS 3 Yrotation Xrotation Zrotation
         End Site
         {
          OFFSET 17.603338 0.000000 0.000000
         }
        }
       }
      }
     }
    }
   }
  }
 }
 JOINT RightHip
 {
  OFFSET -8.341224 -0.057053 -0.005822
  CHANNELS 3 Yrotation Xrotation Zrotation
  JOINT RightKnee
  {
   OFFSET 0.000000 -44.280013 0.005508
   CHANNELS 3 Yrotation Xrotation Zrotation
   JOINT RightAnkle
   {
    OFFSET 0.000000 -43.261728 0.009315
    CHANNELS 3 Yrotation Xrotation Zrotation
    JOINT RightToe
    {
     OFFSET 0.000000 -8.082955 18.257715
     CHANNELS 3 Yrotation Xrotation Zrotation
     End Site
     {
      OFFSET 0.000000 -1.634678 7.189621
     }
    }
   }
  }
 }
 JOINT LeftHip
 {
  OFFSET 8.341224 -0.057053 -0.005822
  CHANNELS 3 Yrotation Xrotation Zrotation
  JOINT LeftKnee
  {
   OFFSET 0.000000 -44.280013 0.005508
   CHANNELS 3 Yrotation Xrotation Zrotation
   JOINT LeftAnkle
   {
    OFFSET 0.000000 -43.261728 0.009315
    CHANNELS 3 Yrotation Xrotation Zrotation
    JOINT LeftToe
    {
     OFFSET 0.000000 -8.082955 18.257715
     CHANNELS 3 Yrotation Xrotation Zrotation
     End Site
     {
      OFFSET 0.000000 -1.634678 7.189621
     }
    }
   }
  }
 }
}
MOTION
Frames: 7
Frame Time: 0.016667
-159.427772 95.460761 -106.685263 86.234795 -3.703397 -4.912219 -3.604272 5.289903 3.031905 -1.634723 2.327501 1.387159 -1.634724 2.327510 1.387167 -1.231167 1.741951 1.046474 4.178588 10.967003 -1.090469 8.538490 -15.610631 -3.960052 1.797024 -4.939798 5.786377 -21.499887 0.432478 71.584217 -4.682239 22.830672 -4.782487 0.440659 1.706467 2.483518 0.862058 -4.136680 -10.030692 2.355071 -11.608282 -66.414706 -45.617357 3.966321 -25.534458 -2.402196 -3.123726 2.756496 -6.538848 -17.424250 -1.460886 -6.420138 6.197206 1.033202 -3.356787 3.977684 16.960465 0.000000 0.000000 0.000000 -6.253282 15.612923 -5.452918 -5.172017 6.247683 1.375372 1.860208 -14.931757 0.949890 0.009568 0.392429 -0.805778
-157.214245 95.139083 -106.204076 86.701433 -3.807648 -4.824910 -3.824242 5.382805 3.043277 -1.733055 2.367229 1.395415 -1.733055 2.367229 1.395415 -1.305022 1.771493 1.053138 4.231837 10.907535 -1.115145 8.656946 -15.714543 -4.036530 1.947099 -5.046174 5.873348 -21.990844 0.937003 71.420841 -5.825432 22.840838 -5.712805 0.264638 1.911329 2.827041 0.802832 -4.104923 -10.030531 1.916137 -11.981421 -66.253512 -46.080587 3.442328 -25.487915 -2.606473 -3.140330 2.929523 -8.155399 -16.504748 -0.684218 -6.359845 1.340683 2.164030 -2.020958 4.398446 19.253561 0.000000 -0.000000 0.000000 -5.968199 16.878660 -5.293499 -5.277179 6.829803 1.383449 1.367930 -15.647210 0.491107 -0.000000 0.000000 0.000000
-154.956306 94.851371 -105.749473 87.221690 -3.864318 -4.730030 -4.081571 5.437078 3.067955 -1.847895 2.389432 1.409795 -1.847893 2.389431 1.409792 -1.391241 1.787842 1.064428 4.300444 10.876940 -1.149852 8.807105 -15.762761 -4.136524 1.998225 -5.097430 5.973691 -22.316058 1.160675 71.138797 -6.992956 23.098477 -6.597985 0.104243 2.056677 3.148740 0.736711 -4.039906 -10.058194 1.802557 -12.351794 -66.237791 -46.096815 3.371311 -25.460434 -2.870574 -3.234557 3.065725 -10.367684 -15.920348 0.516861 -5.550464 -1.391257 2.692888 -1.556769 4.597813 20.897127 -0.000000 -0.000000 -0.000000 -5.282972 17.850693 -4.955104 -5.693085 7.951552 1.347311 0.738576 -16.238300 -0.117608 -0.000404 -1.123263 3.061101
-152.644877 94.585419 -105.316125 87.717288 -3.911425 -4.623273 -4.340991 5.468830 3.098977 -1.963610 2.401524 1.426880 -1.963608 2.401517 1.426875 -1.478108 1.796585 1.077730 4.380148 10.866216 -1.191316 8.979956 -15.772486 -4.252561 1.987256 -5.122232 6.071733 -22.478928 1.191211 70.791917 -8.152452 23.434328 -7.466060 -0.060571 2.182420 3.445403 0.656800 -3.962245 -10.110650 1.907394 -12.664821 -66.356832 -45.675047 3.666498 -25.354565 -3.150014 -3.375753 3.184800 -12.859968 -15.500587 1.908538 -4.150682 -2.508259 2.870112 -1.405089 4.566077 21.855236 -0.000000 -0.000000 0.000000 -4.304157 18.592477 -4.495308 -6.256075 9.518850 1.293674 -0.004078 -16.655271 -0.866861 -0.032174 -2.849799 7.325835
-150.263204 94.351720 -104.916935 88.115218 -3.980556 -4.502461 -4.560951 5.478780 3.142090 -2.061824 2.404064 1.448715 -2.061824 2.404064 1.448715 -1.551853 1.798198 1.094506 4.455298 10.871574 -1.248548 9.149542 -15.751074 -4.395321 1.963947 -5.140344 6.112014 -22.543190 1.146877 70.514145 -9.196907 23.564868 -8.356725 -0.211530 2.307641 3.551032 0.584164 -3.894665 -10.186497 2.034795 -12.797637 -66.616262 -44.818870 4.210761 -25.007674 -3.338656 -3.495347 3.304660 -14.506259 -15.232940 2.954396 -2.222621 -2.263967 2.803810 -1.098401 4.148899 21.245957 0.000000 -0.000000 0.000000 -3.137134 19.078953 -3.989911 -6.781376 11.532430 1.253317 -0.804749 -16.617135 -1.802349 -0.203707 -5.361283 10.857022
-147.779782 94.132060 -104.579454 88.345268 -4.108626 -4.332625 -4.726640 5.469090 3.187439 -2.135854 2.398189 1.470717 -2.135853 2.398197 1.470719 -1.607440 1.793551 1.111280 4.526632 10.893006 -1.327692 9.319926 -15.697852 -4.576869 1.934890 -5.170212 6.058842 -22.526928 1.089227 70.349409 -10.080875 23.426754 -9.326905 -0.360863 2.469353 3.385418 0.522132 -3.857825 -10.276380 2.095511 -12.622325 -67.061636 -43.536060 4.972899 -24.248512 -3.401652 -3.572187 3.445422 -14.798782 -15.277853 3.394013 0.673276 -0.117444 2.567723 -0.142039 3.100704 17.869892 -0.000000 -0.000000 0.000000 -1.744140 19.417669 -3.536474 -7.336224 13.941272 1.298597 -1.636772 -16.284075 -2.865551 -0.604622 -8.624197 12.667751
-145.226115 93.944653 -104.276132 88.477253 -4.258224 -4.148640 -4.852837 5.437925 3.244774 -2.192361 2.382861 1.497342 -2.192358 2.382866 1.497340 -1.649881 1.781820 1.131410 4.593493 10.930681 -1.422293 9.486870 -15.613160 -4.784332 1.894019 -5.194053 5.947744 -22.410052 0.959542 70.253975 -10.833287 23.092305 -10.300849 -0.496805 2.619839 3.028739 0.467892 -3.831316 -10.389769 2.174019 -12.268226 -67.647226 -41.792868 5.938822 -23.212882 -3.373521 -3.631535 3.584155 -14.257956 -15.514474 3.507074 4.030000 3.418635 2.348768 0.785035 2.088522 12.749789 -0.000000 -0.000000 0.000000 -0.172073 19.501974 -3.053614 -7.844628 16.794339 1.383913 -2.585343 -15.491855 -4.080753 -1.237775 -12.646329 13.797668
